<svg id="svg" xmlns="http://www.w3.org/2000/svg" xmlns:xlink="http://www.w3.org/1999/xlink" width="400" height="400" viewBox="0, 0, 400,400"><g id="svgg"><path id="path0" d="M182.422 100.397 C 133.893 108.206,105.121 146.058,105.226 201.953 C 105.312 247.668,122.577 278.885,156.719 295.058 C 182.219 307.138,221.608 305.673,249.609 291.604 C 257.075 287.853,267.185 281.298,267.201 280.198 C 267.237 277.716,259.864 233.106,259.318 232.506 C 258.963 232.116,257.035 233.186,254.928 234.943 C 212.106 270.663,166.442 264.780,156.535 222.266 C 154.318 212.754,154.521 187.218,156.881 178.639 C 167.985 138.281,206.954 132.998,250.977 165.882 C 254.736 168.691,257.833 170.924,257.858 170.846 C 257.883 170.767,259.582 159.325,261.633 145.417 L 265.362 120.132 262.283 117.902 C 242.892 103.855,208.196 96.250,182.422 100.397 " stroke="none" fill="#000000" fill-rule="evenodd"></path></g></svg>