<svg id="svg" xmlns="http://www.w3.org/2000/svg" xmlns:xlink="http://www.w3.org/1999/xlink" width="400" height="400" viewBox="0, 0, 400,400"><g id="svgg"><path id="path0" d="M0.000 200.000 L 0.000 400.000 200.000 400.000 L 400.000 400.000 400.000 200.000 L 400.000 0.000 200.000 0.000 L 0.000 0.000 0.000 200.000 M219.531 100.479 C 235.410 103.064,265.613 116.247,265.628 120.600 C 265.634 122.339,258.435 170.710,258.121 171.034 C 257.945 171.216,256.310 170.248,254.487 168.882 C 201.731 129.369,160.729 138.928,155.349 191.997 C 148.889 255.717,196.644 278.262,251.243 237.267 C 255.769 233.868,259.599 231.214,259.753 231.368 C 260.445 232.060,267.913 280.810,267.387 281.205 C 220.041 316.775,151.340 309.775,122.133 266.406 C 98.166 230.819,98.609 169.163,123.069 135.984 C 144.801 106.506,179.071 93.892,219.531 100.479 " stroke="none" fill="#000000" fill-rule="evenodd"></path></g></svg>