<svg id="svg" xmlns="http://www.w3.org/2000/svg" xmlns:xlink="http://www.w3.org/1999/xlink" width="400" height="111.36738056013179" viewBox="0, 0, 400,111.36738056013179"><g id="svgg"><path id="path0" d="M57.002 21.161 C 55.189 21.484,52.743 21.909,51.565 22.106 L 49.423 22.465 49.423 54.066 L 49.423 85.667 55.354 85.667 L 61.285 85.667 61.285 53.048 C 61.285 35.107,61.063 20.462,60.791 20.502 C 60.519 20.543,58.814 20.839,57.002 21.161 M201.318 21.128 C 199.506 21.428,197.059 21.851,195.881 22.069 L 193.740 22.465 193.740 31.896 L 193.740 41.326 187.315 41.286 C 175.214 41.211,168.345 46.779,166.031 58.541 C 162.178 78.128,176.489 92.669,192.072 85.000 C 194.336 83.886,194.762 83.844,195.235 84.690 C 195.642 85.417,197.038 85.667,200.692 85.667 L 205.601 85.667 205.601 53.048 C 205.601 35.107,205.379 20.463,205.107 20.506 C 204.835 20.548,203.130 20.828,201.318 21.128 M344.975 21.128 C 343.163 21.428,340.717 21.851,339.539 22.069 L 337.397 22.465 337.397 31.896 L 337.397 41.326 330.972 41.286 C 318.872 41.211,312.003 46.779,309.689 58.541 C 305.835 78.128,320.146 92.669,335.730 85.000 C 337.994 83.886,338.419 83.844,338.892 84.690 C 339.300 85.417,340.695 85.667,344.349 85.667 L 349.259 85.667 349.259 53.048 C 349.259 35.107,349.036 20.463,348.764 20.506 C 348.493 20.548,346.787 20.828,344.975 21.128 M17.463 41.983 C 0.390 47.794,-0.652 77.680,15.961 85.056 C 22.439 87.932,34.522 86.621,39.520 82.500 C 40.840 81.411,40.849 81.248,39.877 75.783 C 39.330 72.702,38.881 70.072,38.881 69.938 C 38.880 69.805,37.844 70.486,36.577 71.451 C 25.523 79.883,15.832 76.048,15.819 63.237 C 15.807 51.569,25.853 48.048,36.168 56.104 C 37.032 56.779,37.951 57.331,38.210 57.331 C 39.091 57.331,40.328 46.092,39.551 45.155 C 36.610 41.611,23.913 39.788,17.463 41.983 M83.248 42.236 C 66.591 48.641,66.094 77.790,82.518 85.049 C 95.327 90.710,108.810 83.298,111.368 69.187 C 114.821 50.147,99.890 35.837,83.248 42.236 M232.997 41.837 C 231.573 42.344,229.572 43.378,228.549 44.134 L 226.689 45.509 226.689 43.512 L 226.689 41.516 221.417 41.516 L 216.145 41.516 216.145 63.591 L 216.145 85.667 222.076 85.667 L 228.007 85.667 228.007 71.203 L 228.007 56.739 230.184 55.079 C 240.076 47.534,241.845 49.880,241.845 70.542 L 241.845 85.667 247.832 85.667 L 253.818 85.667 253.565 68.040 C 253.301 49.623,253.067 48.013,250.203 44.888 C 246.768 41.141,238.878 39.741,232.997 41.837 M274.352 42.236 C 257.695 48.641,257.197 77.790,273.621 85.049 C 286.431 90.710,299.913 83.298,302.472 69.187 C 305.925 50.147,290.994 35.837,274.352 42.236 M370.600 41.884 C 351.937 48.770,353.967 81.344,373.357 86.129 C 380.695 87.940,396.705 83.700,396.705 79.946 C 396.705 78.641,395.295 69.571,395.051 69.310 C 394.943 69.194,392.824 70.439,390.343 72.076 C 381.251 78.078,373.438 77.554,370.596 70.751 C 368.774 66.391,368.273 66.557,383.287 66.557 L 396.888 66.557 396.539 60.791 C 395.626 45.736,383.707 37.048,370.600 41.884 M119.934 58.215 C 119.934 76.611,120.402 79.737,123.667 83.145 C 127.733 87.389,136.321 87.939,143.329 84.404 L 146.952 82.576 146.952 84.122 C 146.952 85.606,147.149 85.667,151.895 85.667 L 156.837 85.667 156.837 63.591 L 156.837 41.516 151.236 41.516 L 145.634 41.516 145.634 55.890 L 145.634 70.264 143.822 71.960 C 139.650 75.863,134.654 76.934,132.822 74.318 C 131.963 73.092,131.796 70.300,131.796 57.185 L 131.796 41.516 125.865 41.516 L 119.934 41.516 119.934 58.215 M382.569 52.749 C 386.146 56.109,385.420 56.672,377.510 56.672 C 370.845 56.672,370.347 56.585,370.921 55.519 C 373.412 50.899,379.149 49.535,382.569 52.749 M96.554 53.676 C 101.736 59.171,100.991 71.714,95.275 75.199 C 89.095 78.968,83.171 74.270,82.514 65.077 C 81.718 53.955,90.269 47.012,96.554 53.676 M190.412 52.114 L 193.740 52.827 193.740 61.540 L 193.740 70.252 191.598 72.279 C 183.693 79.761,176.625 75.151,177.403 63.021 C 178.003 53.677,182.016 50.313,190.412 52.114 M287.658 53.676 C 292.840 59.171,292.094 71.714,286.379 75.199 C 280.199 78.968,274.275 74.270,273.618 65.077 C 272.822 53.955,281.373 47.012,287.658 53.676 M334.070 52.114 L 337.397 52.827 337.397 61.540 L 337.397 70.252 335.255 72.279 C 327.351 79.761,320.282 75.151,321.061 63.021 C 321.660 53.677,325.673 50.313,334.070 52.114 " stroke="none" fill="#000000" fill-rule="evenodd"></path></g></svg>